<?xml version="1.0" encoding="UTF-8"?>
<svg id="a" xmlns="http://www.w3.org/2000/svg" width="74.99mm" height="22.75mm" viewBox="0 0 212.58 64.48">
    <defs>
        <style>
            .b {
                fill: #ffffff;
                stroke-width: 0px;
            }
        </style>
    </defs>
    <path class="b"
        d="m5.31,64.48c-1.51,0-2.74-.36-3.7-1.08-.96-.72-1.5-1.67-1.61-2.86l3.32-.7c.09.53.29.94.62,1.23.33.29.75.44,1.26.44.56,0,.98-.14,1.28-.42s.44-.68.44-1.19c0-.44-.16-.79-.47-1.07-.31-.27-.88-.54-1.69-.81-.74-.23-1.36-.46-1.86-.7-.49-.23-.93-.52-1.32-.86-.38-.34-.67-.74-.84-1.2-.18-.46-.27-1.01-.27-1.63,0-1.2.44-2.19,1.32-2.97.88-.77,2.05-1.16,3.51-1.16,1.33,0,2.42.32,3.27.95s1.38,1.44,1.58,2.43l-3.28.92c-.04-.45-.2-.78-.48-1s-.62-.33-1.02-.33c-.37,0-.68.11-.95.32-.27.21-.4.5-.4.86,0,.45.17.79.51,1.04.34.25.98.53,1.9.86.7.23,1.27.46,1.73.69.46.23.88.51,1.25.85.37.34.65.74.82,1.2.17.46.26,1.01.26,1.63,0,1.4-.47,2.51-1.42,3.33-.95.82-2.21,1.23-3.79,1.23Z" />
    <path class="b"
        d="m28.37,64.21h-3.38l-.69-7.75-2.93,7.75h-2.22l-2.92-7.75-.7,7.75h-3.37l1.29-14.44h3.09l3.73,9.86,3.73-9.86h3.06l1.29,14.44Z" />
    <path class="b"
        d="m35.95,49.77c.49,0,.95.04,1.38.13s.85.24,1.26.47.77.5,1.06.85.53.78.71,1.32c.18.54.27,1.16.27,1.84,0,.64-.09,1.22-.27,1.73-.18.51-.42.93-.71,1.25-.3.33-.65.6-1.06.81-.41.22-.83.37-1.27.46-.44.09-.9.13-1.38.13h-1.67v5.44h-3.43v-14.44h5.1Zm-.81,6.41c1.28,0,1.91-.6,1.91-1.79,0-.36-.05-.66-.15-.91-.1-.25-.24-.43-.43-.56s-.38-.21-.6-.26c-.21-.05-.46-.07-.74-.07h-.86v3.6h.86Z" />
    <path class="b" d="m56.38,49.77h3.4v14.44h-2.88l-5.78-8.59v8.59h-3.4v-14.44h2.86l5.8,8.59v-8.59Z" />
    <path class="b" d="m71.17,52.58h-4.83v2.61h4.65v2.56h-4.65v3.64h4.83v2.81h-8.27v-14.44h8.27v2.81Z" />
    <path class="b"
        d="m81.34,56.02h5.21v6.23c-.66.71-1.52,1.27-2.57,1.65-1.06.39-2.17.58-3.33.58-1.01,0-1.97-.18-2.87-.53-.9-.35-1.69-.84-2.37-1.47-.68-.63-1.21-1.42-1.61-2.37-.4-.95-.6-1.99-.6-3.12s.2-2.18.6-3.13c.4-.95.93-1.74,1.61-2.37.68-.63,1.47-1.12,2.37-1.46.9-.35,1.86-.52,2.87-.52,1.13,0,2.19.21,3.17.62.98.42,1.82,1.01,2.5,1.79l-2.34,2.3c-.73-1.16-1.83-1.74-3.32-1.74-1.18,0-2.12.4-2.8,1.19s-1.03,1.9-1.03,3.34.34,2.53,1.03,3.32,1.62,1.19,2.8,1.19,2.07-.27,2.79-.82v-1.97h-2.1v-2.7Z" />
    <path class="b" d="m97.39,52.58h-4.83v2.61h4.65v2.56h-4.65v3.64h4.83v2.81h-8.27v-14.44h8.27v2.81Z" />
    <path class="b"
        d="m107.08,64.21l-2.87-5.74h-.68v5.74h-3.43v-14.44h5.25c.48,0,.94.04,1.37.13.43.09.86.24,1.27.46.41.22.77.5,1.06.83.3.34.53.77.71,1.3s.27,1.13.27,1.8c0,1.98-.85,3.26-2.55,3.85l3.47,6.06h-3.88Zm-3.54-11.65v3.49h1.05c1.28,0,1.91-.59,1.91-1.76,0-.65-.17-1.1-.52-1.35-.35-.25-.81-.38-1.39-.38h-1.05Z" />
    <path class="b" d="m112.74,64.21v-14.44h3.39v14.44h-3.39Z" />
    <path class="b"
        d="m128.47,61.55h5.24l-1.2,2.66h-9.66l5.87-7.87c.65-.88.98-1.68.98-2.4,0-.49-.13-.89-.38-1.19-.25-.31-.64-.46-1.16-.46-1.09,0-1.64.68-1.64,2.03v.49h-3.26v-.57c0-1.53.44-2.69,1.33-3.51.88-.81,2.11-1.22,3.66-1.22,1.46,0,2.64.36,3.52,1.08.88.72,1.32,1.69,1.32,2.91,0,.82-.14,1.55-.43,2.2s-.82,1.48-1.61,2.51l-2.57,3.35Z" />
    <path class="b"
        d="m145.56,64.48c-1.51,0-2.74-.36-3.7-1.08-.96-.72-1.5-1.67-1.61-2.86l3.32-.7c.08.53.29.94.62,1.23.33.29.75.44,1.26.44.56,0,.98-.14,1.28-.42s.44-.68.44-1.19c0-.44-.16-.79-.47-1.07-.31-.27-.88-.54-1.69-.81-.74-.23-1.36-.46-1.86-.7-.49-.23-.93-.52-1.32-.86-.38-.34-.67-.74-.84-1.2-.18-.46-.27-1.01-.27-1.63,0-1.2.44-2.19,1.32-2.97.88-.77,2.05-1.16,3.51-1.16,1.33,0,2.42.32,3.27.95.85.63,1.38,1.44,1.58,2.43l-3.28.92c-.04-.45-.2-.78-.48-1s-.62-.33-1.02-.33c-.37,0-.68.11-.95.32-.27.21-.4.5-.4.86,0,.45.17.79.51,1.04.34.25.98.53,1.9.86.7.23,1.27.46,1.73.69s.88.51,1.25.85c.37.34.65.74.82,1.2.17.46.26,1.01.26,1.63,0,1.4-.47,2.51-1.42,3.33-.95.82-2.21,1.23-3.79,1.23Z" />
    <path class="b"
        d="m161.75,64.21l-.9-2.79h-4.9l-.9,2.79h-3.45l4.95-14.44h3.69l4.95,14.44h-3.45Zm-4.93-5.47h3.18l-1.57-4.87-1.6,4.87Z" />
    <path class="b"
        d="m182.7,64.21h-3.38l-.69-7.75-2.93,7.75h-2.22l-2.92-7.75-.7,7.75h-3.37l1.29-14.44h3.09l3.73,9.86,3.74-9.86h3.06l1.29,14.44Z" />
    <path class="b"
        d="m193.55,56.58c1.51.59,2.26,1.75,2.26,3.47,0,1.29-.45,2.3-1.35,3.05-.9.74-2.05,1.12-3.46,1.12h-5.81v-14.44h5.44c3.12,0,4.69,1.28,4.69,3.83,0,1.48-.59,2.47-1.76,2.98Zm-3.61-4.03h-1.33v2.87h1.33c.53,0,.97-.11,1.32-.34.35-.23.52-.6.52-1.13,0-.93-.61-1.39-1.84-1.39Zm-.24,8.91c.83,0,1.46-.13,1.9-.4s.65-.72.65-1.36c0-.71-.2-1.21-.59-1.5-.39-.29-.97-.44-1.74-.44h-1.31v3.7h1.09Z" />
    <path class="b" d="m197.97,64.21v-14.44h3.39v14.44h-3.39Z" />
    <path class="b" d="m212.58,49.77v2.81h-3v11.63h-3.43v-11.63h-3.02v-2.81h9.46Z" />
    <path class="b" d="m23.13,8.13h-12.77v6.9h12.29v6.77h-12.29v9.63h12.77v7.43H1.28V.7h21.85v7.43Z" />
    <path class="b"
        d="m40.87,39.56c-3.98,0-7.24-.95-9.77-2.85-2.53-1.9-3.95-4.42-4.26-7.55l8.78-1.84c.23,1.4.77,2.49,1.63,3.25.86.77,1.97,1.15,3.33,1.15,1.47,0,2.59-.37,3.37-1.1.78-.73,1.17-1.79,1.17-3.16,0-1.16-.41-2.1-1.23-2.82-.82-.72-2.31-1.43-4.48-2.14-1.97-.61-3.61-1.23-4.91-1.84-1.31-.61-2.47-1.37-3.48-2.26-1.02-.9-1.76-1.95-2.23-3.17-.47-1.22-.7-2.66-.7-4.32,0-3.18,1.17-5.79,3.5-7.84C33.92,1.02,37.01,0,40.87,0,44.38,0,47.26.84,49.5,2.52c2.24,1.68,3.64,3.81,4.19,6.41l-8.66,2.42c-.11-1.18-.54-2.06-1.27-2.64-.73-.58-1.63-.87-2.7-.87-.97,0-1.8.28-2.5.85-.7.56-1.05,1.32-1.05,2.27,0,1.18.45,2.09,1.35,2.75.9.65,2.58,1.41,5.03,2.26,1.84.61,3.37,1.22,4.58,1.83,1.22.61,2.32,1.35,3.3,2.24.98.89,1.71,1.94,2.17,3.17.46,1.23.69,2.66.69,4.31,0,3.71-1.25,6.65-3.75,8.81-2.5,2.16-5.84,3.24-10.02,3.24Z" />
    <path class="b"
        d="m82.17,38.86l-2.37-7.38h-12.94l-2.37,7.38h-9.12L68.45.7h9.75l13.09,38.15h-9.12Zm-13.04-14.47h8.4l-4.16-12.87-4.23,12.87Z" />
    <path class="b"
        d="m136.03,38.86h-8.93l-1.82-20.47-7.74,20.47h-5.86l-7.72-20.47-1.84,20.47h-8.9L96.64.7h8.18l9.85,26.06L124.54.7h8.08l3.41,38.15Z" />
    <path class="b"
        d="m156.57.7c2.65.02,5.13.45,7.45,1.29,2.32.85,4.36,2.06,6.12,3.63,1.76,1.57,3.15,3.58,4.17,6.01,1.02,2.44,1.54,5.15,1.54,8.15s-.51,5.69-1.54,8.13c-1.02,2.44-2.42,4.44-4.17,6.01s-3.8,2.79-6.12,3.64c-2.32.86-4.81,1.28-7.45,1.28h-15.46V.7h15.46Zm0,30.73c3.05,0,5.43-1,7.15-3.01,1.72-2.01,2.58-4.88,2.58-8.63s-.86-6.66-2.58-8.66c-1.72-2-4.1-3-7.15-3h-6.39v23.3h6.39Z" />
    <path class="b"
        d="m202.4,38.86l-2.37-7.38h-12.94l-2.37,7.38h-9.12L188.68.7h9.75l13.09,38.15h-9.12Zm-13.04-14.47h8.4l-4.16-12.87-4.23,12.87Z" />
</svg>